<?xml version="1.0" encoding="UTF-8"?>
<svg id="Layer_1" data-name="Layer 1" xmlns="http://www.w3.org/2000/svg" viewBox="0 0 224 255">
  <defs>
    <style>
      .cls-1 {
        fill: #aeccfc;
      }

      .cls-2 {
        fill: #5779bc;
        stroke: #384e85;
        stroke-miterlimit: 10;
        stroke-width: 9px;
      }
    </style>
  </defs>
  <path d="M8,162.37l38.3-18.6c2.2-1.1,4.9-.1,6,2.1h0c1.1,2.2.2,4.9-2.1,6l-38.3,18.6c-2.2,1.1-4.9.1-6-2.1h0c-1.1-2.2-.2-4.9,2.1-6Z"/>
  <path d="M171.6,143.77h0c1.1-2.2,3.8-3.2,6-2.1l38.4,18.6c2.2,1.1,3.2,3.8,2.1,6h0c-1.1,2.2-3.8,3.2-6,2.1l-38.4-18.6c-2.2-1.1-3.2-3.8-2.1-6Z"/>
  <path d="M86.5,252.07h-17.1c-2.3,0-4.1-1.8-4.1-4.1h0c0-2.3,1.8-4.1,4.1-4.1h9.7c2.1,0,3.9-1.6,4.1-3.7l4.8-48.2c.2-2.3,2.2-3.9,4.5-3.7h0c2.3.2,3.9,2.2,3.7,4.5l-5.6,55.6c-.2,2.1-2,3.7-4.1,3.7h0Z"/>
  <path d="M146.8,252.07h17.1c2.3,0,4.1-1.8,4.1-4.1h0c0-2.3-1.8-4.1-4.1-4.1h-9.7c-2.1,0-3.9-1.6-4.1-3.7l-4.9-48.2c-.2-2.3-2.2-3.9-4.5-3.7h0c-2.3.2-3.9,2.2-3.7,4.5l5.6,55.6c.2,2.1,2,3.7,4.1,3.7h.1Z"/>
  <path class="cls-2" d="M115.4,13.57l-50.9,56.3c-41.1,45.5-12.5,123.2,45.6,124.1h9c58.9,1,89-77.8,47.3-123.9L115.4,13.57h0Z"/>
  <path class="cls-1" d="M80.6,82.57c3.4-9,15.2-12.7,21.6-19.3,4-4.2-2.3-10.5-6.4-6.4-8.1,8.3-19.6,11.7-23.9,23.3-2,5.4,6.7,7.8,8.7,2.4h0Z"/>
  <ellipse cx="99.4" cy="112.67" rx="7" ry="13.8"/>
  <ellipse cx="132.1" cy="112.67" rx="7" ry="13.8"/>
  <path d="M116.1,139.17c-9,0-16.3-3.2-19.6-5s-1.4-1.9-.7-2.9h0c.6-.9,1.7-1.1,2.6-.6,4.6,2.5,18.9,8.9,34,0,.9-.5,2.1-.3,2.7.6h0c.6,1,.3,2.3-.7,2.8-6.4,3.7-12.6,5-18.2,5h0l-.1.1Z"/>
</svg>