<?xml version="1.0" encoding="UTF-8"?>
<svg id="Layer_1" data-name="Layer 1" xmlns="http://www.w3.org/2000/svg" viewBox="0 0 224 255">
  <defs>
    <style>
      .cls-1 {
        fill: #aeccfc;
      }

      .cls-2 {
        fill: #5779bc;
        stroke: #384e85;
        stroke-miterlimit: 10;
        stroke-width: 9px;
      }
    </style>
  </defs>
  <path class="cls-2" d="M61.04,91.23c-41.1,45.5-12.5,123.2,45.6,124.1h9c58.9,1,89-77.8,47.3-123.9l-51-56.4h0l-50.9,56.2Z"/>
  <path d="M72.54,144.03h0c.5,0,7.9-9.4,16-9.4s17.5,9.4,17.5,9.4c3,0,4.6-3.6,2.6-5.8-7.4-8.2-22.9-20.1-38.8.2-1.8,2.3-.2,5.6,2.7,5.6Z"/>
  <path d="M154.54,144.03h0c-.5,0-7.9-9.4-16-9.4s-17.5,9.4-17.5,9.4c-3,0-4.6-3.6-2.6-5.8,7.4-8.2,22.9-20.1,38.8.2,1.8,2.3.1,5.6-2.7,5.6h0Z"/>
  <path d="M102.34,151.03h24.3c8.4,0,12.3,5.9,6.1,9l-2.2,1.1c-8.8,4.5-23.2,4.5-32,0l-2.2-1.1c-6.2-3.2-2.3-9.1,6.1-9.1h0l-.1.1Z"/>
  <path class="cls-1" d="M77.14,103.83c3.4-9,15.2-12.7,21.6-19.3,4-4.2-2.3-10.5-6.4-6.4-8.1,8.3-19.6,11.7-23.9,23.3-2,5.4,6.7,7.8,8.7,2.4h0Z"/>
</svg>